<svg id="visual" viewBox="0 0 900 600" width="900" height="600" xmlns="http://www.w3.org/2000/svg" xmlns:xlink="http://www.w3.org/1999/xlink" version="1.1"><path d="M0 79L82 79L82 43L164 43L164 67L245 67L245 43L327 43L327 85L409 85L409 79L491 79L491 43L573 43L573 67L655 67L655 37L736 37L736 67L818 67L818 55L900 55L900 91L900 0L900 0L818 0L818 0L736 0L736 0L655 0L655 0L573 0L573 0L491 0L491 0L409 0L409 0L327 0L327 0L245 0L245 0L164 0L164 0L82 0L82 0L0 0Z" fill="#001122"></path><path d="M0 283L82 283L82 211L164 211L164 235L245 235L245 265L327 265L327 229L409 229L409 223L491 223L491 145L573 145L573 181L655 181L655 133L736 133L736 187L818 187L818 271L900 271L900 307L900 89L900 53L818 53L818 65L736 65L736 35L655 35L655 65L573 65L573 41L491 41L491 77L409 77L409 83L327 83L327 41L245 41L245 65L164 65L164 41L82 41L82 77L0 77Z" fill="#02172f"></path><path d="M0 451L82 451L82 355L164 355L164 409L245 409L245 379L327 379L327 367L409 367L409 367L491 367L491 325L573 325L573 397L655 397L655 361L736 361L736 385L818 385L818 427L900 427L900 463L900 305L900 269L818 269L818 185L736 185L736 131L655 131L655 179L573 179L573 143L491 143L491 221L409 221L409 227L327 227L327 263L245 263L245 233L164 233L164 209L82 209L82 281L0 281Z" fill="#081b3c"></path><path d="M0 541L82 541L82 499L164 499L164 559L245 559L245 493L327 493L327 481L409 481L409 511L491 511L491 469L573 469L573 529L655 529L655 541L736 541L736 511L818 511L818 487L900 487L900 523L900 461L900 425L818 425L818 383L736 383L736 359L655 359L655 395L573 395L573 323L491 323L491 365L409 365L409 365L327 365L327 377L245 377L245 407L164 407L164 353L82 353L82 449L0 449Z" fill="#161e48"></path><path d="M0 601L82 601L82 601L164 601L164 601L245 601L245 601L327 601L327 601L409 601L409 601L491 601L491 601L573 601L573 601L655 601L655 601L736 601L736 601L818 601L818 601L900 601L900 601L900 521L900 485L818 485L818 509L736 509L736 539L655 539L655 527L573 527L573 467L491 467L491 509L409 509L409 479L327 479L327 491L245 491L245 557L164 557L164 497L82 497L82 539L0 539Z" fill="#272053"></path></svg>