<svg id="visual" viewBox="0 0 900 600" width="900" height="600" xmlns="http://www.w3.org/2000/svg" xmlns:xlink="http://www.w3.org/1999/xlink" version="1.1"><path d="M0 133L113 121L225 175L338 205L450 217L563 109L675 127L788 145L900 115L900 0L788 0L675 0L563 0L450 0L338 0L225 0L113 0L0 0Z" fill="#111936"></path><path d="M0 265L113 193L225 277L338 331L450 301L563 235L675 259L788 271L900 217L900 113L788 143L675 125L563 107L450 215L338 203L225 173L113 119L0 131Z" fill="#131c3f"></path><path d="M0 319L113 271L225 367L338 379L450 367L563 313L675 349L788 319L900 289L900 215L788 269L675 257L563 233L450 299L338 329L225 275L113 191L0 263Z" fill="#161e48"></path><path d="M0 517L113 505L225 517L338 511L450 541L563 529L675 523L788 505L900 493L900 287L788 317L675 347L563 311L450 365L338 377L225 365L113 269L0 317Z" fill="#242d5d"></path><path d="M0 601L113 601L225 601L338 601L450 601L563 601L675 601L788 601L900 601L900 491L788 503L675 521L563 527L450 539L338 509L225 515L113 503L0 515Z" fill="#333c73"></path></svg>